<?xml version="1.0" standalone="no"?>
<!DOCTYPE svg PUBLIC "-//W3C//DTD SVG 20010904//EN"
 "http://www.w3.org/TR/2001/REC-SVG-20010904/DTD/svg10.dtd">
<svg version="1.0" xmlns="http://www.w3.org/2000/svg"
 width="1536.000000pt" height="1536.000000pt" viewBox="0 0 1536.000000 1536.000000"
 preserveAspectRatio="xMidYMid meet">

<g transform="translate(0.000000,1536.000000) scale(0.100000,-0.100000)"
fill="#000000" stroke="none">
<path d="M7836 13943 c-102 -343 -225 -569 -421 -772 -216 -224 -485 -375
-955 -536 -494 -170 -719 -267 -1060 -457 -585 -328 -1173 -844 -1590 -1396
-313 -415 -574 -884 -749 -1344 -112 -296 -228 -740 -295 -1128 -44 -259 -175
-424 -466 -585 -94 -52 -220 -105 -250 -105 -10 0 -22 -9 -25 -21 -6 -17 6
-34 57 -83 68 -67 127 -108 253 -176 197 -106 296 -203 382 -375 52 -103 80
-202 123 -430 59 -313 98 -467 180 -714 59 -178 161 -438 198 -505 42 -76 48
-77 133 -17 218 151 207 137 169 217 -135 284 -241 608 -325 993 -84 384 -109
663 -102 1131 5 349 17 480 77 830 169 998 614 1851 1339 2569 179 177 308
287 523 445 216 160 248 181 503 331 408 240 744 377 1230 499 182 45 610 116
707 116 31 0 43 -25 29 -62 -8 -23 -19 -25 -194 -51 -228 -33 -341 -55 -577
-113 -163 -41 -480 -137 -535 -163 -11 -6 -59 -26 -108 -46 -258 -104 -616
-306 -885 -499 -498 -356 -837 -696 -1171 -1168 -263 -373 -429 -701 -582
-1148 -105 -306 -191 -698 -236 -1075 -25 -215 -26 -862 0 -1085 50 -442 134
-797 270 -1140 92 -231 156 -360 181 -360 6 0 34 15 61 33 114 75 236 160 240
166 2 4 -20 66 -49 137 -193 473 -288 873 -326 1374 -19 256 -9 728 21 955
122 940 567 1861 1209 2505 547 550 1246 966 1950 1164 525 147 1200 193 1700
117 382 -58 775 -161 1060 -278 94 -39 391 -183 485 -236 622 -350 1157 -836
1532 -1392 140 -208 307 -520 394 -736 184 -461 311 -1013 338 -1482 40 -667
-44 -1253 -276 -1927 l-84 -245 28 -23 c47 -38 262 -182 271 -182 23 0 162
343 235 580 107 345 169 653 209 1045 20 202 17 801 -6 984 -90 733 -318 1433
-638 1963 -195 323 -449 645 -703 892 -139 135 -263 247 -355 322 -205 165
-495 367 -645 449 -38 21 -81 46 -95 56 -50 34 -368 188 -510 247 -370 154
-775 260 -1230 322 -157 22 -180 31 -180 70 0 46 33 49 234 19 797 -117 1394
-346 2091 -804 342 -225 749 -586 1025 -910 506 -594 821 -1240 1008 -2070
232 -1026 119 -2183 -308 -3155 -17 -40 -29 -78 -26 -85 5 -15 270 -195 286
-195 37 0 242 564 344 948 26 95 69 279 96 410 57 266 77 336 125 437 64 133
172 240 360 358 50 31 126 88 170 127 44 39 92 79 108 88 15 9 26 20 24 25 -1
4 -35 19 -75 33 -70 23 -222 95 -246 115 -6 6 -44 31 -83 57 -146 95 -267 240
-305 367 -5 16 -31 138 -59 270 -129 615 -250 987 -475 1454 -56 116 -89 178
-194 366 -39 71 -246 377 -327 485 -295 392 -631 725 -1046 1037 -519 389
-1038 653 -1707 868 -58 18 -157 52 -220 74 -397 143 -740 400 -934 701 -107
165 -239 467 -271 618 -3 17 -10 32 -14 32 -3 0 -24 -57 -45 -127z m69 -605
c2 -7 9 -112 15 -233 10 -214 11 -222 41 -282 34 -70 109 -144 161 -159 40
-12 40 -23 6 -144 -49 -171 -87 -202 -213 -168 -40 11 -49 10 -90 -10 -28 -13
-49 -32 -55 -48 -13 -34 -13 -87 1 -101 13 -13 0 -41 -27 -64 -16 -12 -17 -12
-11 3 3 10 9 50 12 90 6 61 2 87 -19 161 -15 48 -40 115 -57 148 -55 110 -55
104 6 138 71 40 122 94 153 160 23 51 26 71 33 260 4 113 8 218 8 234 1 28 28
39 36 15z m25 -1002 c0 -1 -29 -30 -65 -63 -36 -33 -65 -55 -65 -49 0 12 108
116 121 116 5 0 9 -2 9 -4z m-5240 -4640 c0 -6 7 -20 15 -30 15 -19 15 -19 45
3 41 30 57 17 25 -21 -31 -37 -31 -42 0 -62 35 -23 31 -36 -9 -36 -31 0 -35
-3 -43 -36 -11 -46 -26 -45 -37 4 -8 38 -11 40 -52 47 -24 3 -46 10 -48 14 -3
5 13 16 35 26 39 18 40 20 39 64 -1 25 -1 50 -1 55 1 12 31 -14 31 -28z
m10468 -59 c9 -11 34 -28 56 -39 l38 -20 -27 -14 c-15 -8 -39 -14 -54 -14 -38
0 -46 -9 -66 -70 -20 -63 -53 -108 -40 -55 4 17 10 54 14 82 7 51 7 54 -31 95
l-39 43 38 3 c47 4 60 15 69 55 l7 32 9 -39 c5 -22 16 -49 26 -59z"/>
<path d="M7865 12729 c-36 -51 -94 -103 -144 -128 l-40 -21 24 -42 c20 -37 43
-91 68 -160 6 -16 8 -16 39 0 25 13 57 17 135 16 l102 -2 6 37 c11 66 24 126
30 143 5 13 0 20 -20 28 -47 18 -86 51 -130 111 l-43 58 -27 -40z"/>
<path d="M6814 13335 c-271 -84 -739 -256 -963 -354 -325 -143 -692 -343 -991
-540 -96 -62 -401 -289 -470 -348 -224 -193 -308 -269 -455 -417 -254 -255
-407 -439 -689 -826 -30 -41 -100 -147 -154 -235 -315 -509 -523 -977 -687
-1549 -86 -297 -165 -675 -165 -785 0 -60 13 -93 28 -76 6 6 30 114 55 240 86
431 166 718 305 1085 92 245 238 563 337 735 30 52 55 97 55 99 0 12 173 286
257 410 274 399 483 644 864 1012 260 251 629 531 969 736 164 99 207 122 450
243 305 153 546 253 930 389 250 89 279 101 398 159 97 47 124 68 85 66 -10 0
-81 -20 -159 -44z"/>
<path d="M8850 13375 c0 -8 84 -61 160 -102 41 -22 154 -66 250 -98 349 -115
546 -194 900 -362 271 -129 669 -364 907 -537 53 -38 274 -202 288 -213 193
-156 352 -299 510 -457 254 -255 414 -445 644 -766 278 -389 471 -734 646
-1155 155 -373 240 -651 354 -1155 24 -107 79 -280 93 -295 6 -6 7 5 4 30 -3
22 -11 83 -16 135 -31 279 -148 720 -295 1117 -120 319 -319 733 -472 977
-343 548 -733 1017 -1178 1416 -110 99 -337 278 -485 383 -74 52 -148 105
-165 117 -43 31 -288 186 -370 235 -107 63 -656 336 -775 384 -206 85 -339
134 -625 231 -159 54 -303 103 -318 109 -29 11 -57 15 -57 6z"/>
<path d="M7887 11770 c-24 -77 -36 -108 -77 -196 -26 -55 -62 -145 -80 -200
-29 -88 -33 -112 -33 -214 -1 -133 9 -176 80 -331 l48 -104 5 -615 c3 -338 4
-616 4 -618 -1 -2 -5 14 -8 35 -4 21 -20 90 -36 153 -16 63 -38 160 -50 215
-30 145 -76 233 -169 325 -73 72 -171 145 -275 205 l-49 29 7 -109 c21 -310
68 -431 199 -518 32 -20 82 -53 112 -73 93 -62 185 -220 211 -364 15 -82 19
-370 6 -354 -5 5 -35 82 -67 172 -100 283 -193 403 -435 567 -52 36 -101 65
-108 65 -33 0 -43 -134 -17 -254 17 -79 70 -191 123 -256 20 -25 89 -100 153
-167 167 -173 218 -248 248 -358 17 -65 24 -203 16 -319 l-7 -108 -32 54 c-36
60 -135 196 -292 403 -239 315 -320 471 -433 835 -52 165 -85 260 -107 303
-50 98 -140 182 -320 299 -55 36 -111 80 -124 98 -21 30 -22 36 -11 84 20 85
24 196 11 276 -23 144 -74 237 -210 380 -44 47 -89 104 -101 128 -11 23 -24
42 -28 42 -4 0 -12 -24 -18 -52 -5 -29 -22 -98 -37 -153 -36 -134 -45 -284
-22 -386 24 -110 65 -186 142 -270 94 -101 103 -109 231 -205 182 -137 241
-201 303 -329 73 -149 81 -201 91 -545 4 -168 11 -321 14 -340 6 -34 4 -33
-77 51 -88 90 -104 117 -257 441 -69 146 -117 221 -198 308 -66 72 -215 186
-356 272 -122 75 -156 114 -191 220 -44 131 -75 185 -147 257 -57 57 -253 191
-280 191 -15 0 -32 -145 -26 -225 10 -128 61 -245 135 -307 49 -41 150 -84
242 -104 48 -11 99 -29 121 -44 70 -47 170 -143 250 -238 142 -171 209 -345
244 -632 37 -301 48 -355 91 -449 13 -30 23 -55 22 -57 -2 -1 -41 6 -87 17
-46 11 -161 33 -255 50 -94 17 -198 40 -231 51 -150 50 -295 179 -373 335 -41
80 -73 195 -92 332 -21 146 -43 257 -62 304 -15 38 -38 35 -37 -5 1 -18 -4
-46 -10 -62 -7 -16 -16 -73 -21 -127 -8 -80 -6 -116 10 -210 22 -130 55 -251
100 -364 17 -43 29 -79 28 -80 -2 -2 -26 -19 -55 -38 -57 -38 -75 -41 -370
-53 -95 -4 -143 -10 -144 -18 -4 -94 5 -274 16 -317 25 -97 121 -156 146 -91
6 15 14 77 18 137 l6 110 90 8 c159 13 495 -11 800 -58 55 -8 160 -24 233 -35
234 -35 355 -91 493 -229 88 -89 209 -242 209 -266 0 -11 -13 -8 -52 9 -72 32
-195 73 -301 101 -57 15 -119 41 -170 71 -303 177 -400 211 -697 243 -58 6
-122 14 -142 16 -35 5 -38 3 -38 -18 0 -30 40 -148 70 -207 12 -25 55 -76 94
-115 87 -85 178 -135 366 -200 242 -84 375 -177 318 -223 -23 -18 -82 -20
-189 -6 -252 33 -437 119 -577 268 -93 100 -150 222 -188 403 -20 99 -43 139
-90 159 -75 31 -94 -3 -101 -186 -6 -144 6 -210 62 -327 95 -202 244 -340 500
-465 204 -99 448 -198 700 -283 238 -81 388 -136 450 -167 117 -59 233 -140
369 -258 57 -50 188 -217 237 -301 89 -156 156 -323 175 -434 8 -51 6 -49
-101 113 -111 168 -224 285 -363 375 -193 127 -351 192 -652 270 -191 50 -440
132 -536 178 -88 41 -167 102 -390 301 -302 268 -391 370 -534 611 -57 96 -66
106 -77 91 -7 -10 -13 -38 -13 -63 0 -48 23 -171 40 -216 5 -14 10 -36 10 -49
0 -12 14 -41 31 -65 l32 -43 -57 37 c-64 41 -125 65 -165 65 -15 0 -31 4 -37
8 -5 5 -36 19 -68 32 -32 13 -97 52 -144 87 -46 35 -114 78 -151 96 -62 30
-72 32 -196 35 -75 1 -161 -3 -203 -10 l-73 -13 109 -145 c60 -80 127 -159
148 -176 99 -79 193 -105 339 -93 326 27 364 24 485 -36 63 -32 184 -143 241
-220 12 -16 43 -52 68 -79 25 -27 38 -46 29 -43 -9 3 -43 11 -75 16 -32 6 -94
17 -138 25 -44 8 -81 13 -84 11 -10 -11 59 -51 236 -139 106 -53 214 -111 240
-129 131 -93 327 -179 593 -260 212 -64 444 -164 556 -238 199 -133 374 -317
529 -559 146 -227 279 -600 325 -910 21 -143 60 -550 53 -550 -1 0 -15 28 -32
63 -71 149 -295 357 -560 521 -112 69 -362 195 -500 251 -165 67 -559 190
-816 255 -282 71 -686 176 -757 195 -173 49 -455 105 -480 96 -13 -5 -47 -12
-75 -16 -58 -8 -68 -15 -59 -49 6 -25 88 -55 334 -122 131 -35 279 -90 217
-80 -137 23 -220 40 -275 58 -182 56 -307 88 -327 83 -24 -6 -103 -55 -103
-65 0 -8 181 -61 337 -100 67 -16 209 -54 315 -84 106 -30 225 -60 263 -66
188 -29 469 -101 549 -140 34 -16 104 -41 156 -56 52 -14 120 -32 150 -41 175
-48 417 -141 580 -223 189 -95 396 -221 483 -293 21 -17 21 -17 -8 0 -16 10
-55 35 -85 55 -115 77 -323 194 -415 234 -27 11 -70 30 -95 41 -131 59 -408
151 -621 207 -75 19 -161 45 -190 57 -108 42 -233 75 -501 129 -53 11 -177 41
-275 66 -98 25 -223 57 -278 70 -55 13 -138 35 -185 50 -47 14 -113 32 -147
41 l-62 15 -58 -34 c-32 -18 -76 -43 -98 -55 -55 -29 -56 -43 -2 -43 47 0 171
-20 422 -68 143 -28 240 -52 650 -162 99 -26 250 -65 335 -85 147 -35 544
-141 640 -170 25 -7 118 -34 207 -59 321 -90 747 -282 932 -421 94 -70 278
-252 302 -297 7 -13 -38 29 -99 93 -62 65 -154 149 -206 188 -170 129 -527
289 -861 385 -307 88 -956 256 -1285 332 -85 20 -248 61 -363 90 -114 30 -278
65 -365 79 -86 14 -184 32 -217 41 -33 9 -83 22 -111 28 l-52 13 -85 -56 c-47
-31 -94 -61 -104 -68 -15 -10 -8 -12 42 -12 135 -2 476 -59 810 -137 582 -136
1604 -394 1818 -460 368 -112 578 -206 832 -373 91 -59 235 -171 235 -183 0
-8 -19 4 -120 77 -280 201 -596 342 -1060 470 -229 63 -1408 361 -1605 405
-55 12 -147 33 -205 47 -159 37 -407 81 -579 104 -85 11 -158 22 -162 24 -3 3
-27 -1 -51 -9 -47 -14 -194 -111 -181 -119 5 -3 26 -8 48 -12 62 -10 157 -30
445 -90 146 -31 330 -69 410 -85 379 -76 741 -157 1250 -281 1125 -275 1635
-485 1983 -818 170 -163 242 -320 286 -627 10 -71 21 -122 24 -114 3 8 16 64
27 123 74 373 227 583 606 829 57 37 266 141 370 183 393 163 1336 416 2224
595 85 17 207 43 270 57 120 26 509 107 715 149 66 13 163 31 215 40 52 9 101
17 108 18 34 6 29 10 -323 251 -77 53 -201 138 -275 189 -74 52 -198 138 -275
191 -77 53 -163 115 -191 138 -95 78 -181 142 -313 232 -73 50 -162 112 -199
138 -91 66 -335 185 -392 192 l-45 5 56 -19 c74 -24 324 -148 341 -168 11 -14
-104 43 -137 68 -22 15 -121 39 -167 39 -92 0 -495 -71 -710 -126 -375 -95
-748 -267 -975 -449 -124 -100 -273 -271 -273 -314 0 -9 21 8 47 39 176 206
430 379 768 522 286 122 506 179 1033 271 152 26 193 20 337 -53 55 -27 108
-50 117 -50 9 0 29 -10 45 -23 15 -13 57 -43 93 -68 36 -24 73 -54 83 -66 10
-13 25 -23 32 -23 19 0 115 -72 109 -82 -3 -4 -62 -7 -132 -6 -177 2 -448 -18
-626 -47 -123 -20 -542 -113 -581 -129 -32 -13 46 -1 240 39 453 93 884 136
1070 105 43 -7 61 -6 66 2 5 8 22 1 56 -21 l48 -32 -80 8 c-102 10 -343 6
-460 -8 -239 -28 -768 -128 -956 -179 -447 -123 -804 -295 -1107 -534 -185
-146 -287 -265 -371 -435 -53 -106 -48 -129 7 -34 59 100 136 192 260 308 132
124 170 154 302 242 128 85 239 146 389 212 440 196 1158 362 1757 406 140 10
354 -24 354 -56 0 -10 -9 -12 -135 -34 -49 -9 -153 -36 -230 -60 -160 -50
-457 -132 -720 -200 -502 -130 -897 -261 -1195 -398 -115 -53 -356 -184 -440
-240 -153 -102 -350 -287 -425 -397 l-37 -55 7 125 c15 292 57 547 141 845
120 430 352 788 659 1018 110 82 342 192 570 272 350 122 457 167 636 271 204
118 368 192 489 220 79 18 86 29 46 79 l-24 29 -88 -11 c-49 -6 -109 -18 -134
-27 -24 -8 -46 -13 -48 -11 -2 2 36 46 85 97 49 51 117 122 151 158 84 90 125
105 275 97 62 -3 158 -15 215 -26 264 -53 424 -5 563 169 57 72 169 261 169
285 0 10 -151 3 -251 -11 -126 -19 -227 -55 -329 -119 -108 -67 -176 -98 -270
-124 -116 -31 -189 -42 -210 -31 -16 9 -15 15 15 92 18 46 36 104 40 130 9 56
-2 128 -19 128 -18 0 -49 -38 -82 -100 -40 -77 -131 -218 -167 -260 -105 -122
-174 -193 -262 -269 -55 -47 -116 -100 -135 -118 -53 -48 -149 -121 -210 -161
-200 -129 -326 -178 -745 -292 -468 -126 -627 -207 -834 -419 -80 -83 -134
-153 -201 -264 -29 -48 -55 -85 -58 -83 -5 6 30 113 70 216 112 284 267 494
491 661 182 137 343 209 627 283 211 55 265 73 488 165 287 118 425 194 571
315 142 117 239 259 288 421 19 65 25 257 10 328 -8 36 -9 37 -51 37 -63 0
-83 -27 -116 -158 -74 -291 -253 -492 -527 -592 -106 -38 -310 -66 -407 -55
l-66 7 21 30 c55 76 252 191 424 248 196 64 298 128 378 238 35 48 87 184 87
228 0 43 -37 29 -101 -40 -81 -86 -143 -117 -317 -156 -78 -17 -147 -30 -153
-28 -14 5 114 68 243 119 122 48 182 78 174 87 -16 15 -247 -10 -353 -39 -104
-29 -192 -67 -313 -138 -83 -48 -146 -74 -305 -127 -184 -60 -345 -97 -361
-82 -6 7 226 237 321 318 167 144 297 172 1030 225 17 1 138 4 270 6 l239 4
21 -125 c24 -145 36 -174 68 -164 60 18 100 96 100 194 -1 78 -30 252 -44 261
-6 3 -83 9 -172 13 -180 7 -272 23 -353 60 -56 26 -61 36 -43 82 5 16 16 78
24 138 8 62 29 160 48 221 51 161 61 222 53 318 -6 70 -12 121 -15 136 -1 2
-8 -3 -18 -10 -27 -23 -51 -89 -72 -197 -22 -111 -63 -240 -139 -429 -71 -177
-132 -245 -288 -322 -64 -32 -114 -46 -264 -76 -160 -32 -284 -62 -338 -83 -9
-3 -13 -1 -9 5 11 17 55 234 66 323 6 47 16 153 22 235 22 324 89 484 280 672
140 138 186 167 311 198 248 62 356 192 371 450 4 69 -8 223 -19 234 -6 6 -2
9 -131 -88 -237 -179 -317 -282 -364 -472 -12 -46 -27 -91 -34 -99 -8 -8 -38
-28 -68 -44 -143 -74 -338 -254 -439 -405 -29 -41 -94 -164 -146 -271 -52
-107 -110 -220 -129 -250 -34 -54 -150 -180 -165 -180 -4 0 -8 114 -8 254 0
332 18 440 105 632 79 174 198 311 404 466 152 113 231 210 268 328 28 86 25
360 -5 500 -13 58 -25 113 -28 123 -7 24 -31 21 -39 -4 -9 -27 -51 -89 -152
-223 -92 -123 -138 -209 -153 -287 -13 -64 -14 -237 -2 -270 9 -26 3 -64 -13
-89 -5 -9 -50 -47 -100 -85 -49 -38 -133 -111 -187 -163 -89 -86 -101 -102
-157 -215 -33 -67 -77 -174 -96 -237 -98 -310 -139 -413 -211 -526 -39 -62
-53 -80 -199 -259 -124 -151 -275 -358 -334 -454 l-49 -81 -7 159 c-8 188 3
273 47 358 41 80 79 125 258 303 135 134 162 166 197 235 47 91 80 199 89 293
l7 63 -29 -7 c-54 -13 -177 -63 -213 -87 -20 -13 -55 -36 -79 -52 -23 -15 -72
-58 -108 -94 -80 -81 -135 -186 -195 -371 -23 -72 -46 -130 -51 -130 -14 0 0
314 16 393 31 142 109 237 272 330 118 67 131 78 177 139 64 85 78 142 87 338
4 96 7 176 5 178 -2 2 -27 -9 -57 -24 -136 -69 -301 -217 -355 -319 -30 -57
-63 -185 -78 -303 -10 -76 -93 -312 -110 -312 -4 0 -3 6 2 13 4 6 10 296 13
642 l5 630 47 90 c91 176 116 280 99 415 -13 99 -34 157 -118 325 -39 77 -75
151 -81 165 -7 18 -11 21 -15 10z m-1392 -2738 c94 -92 179 -159 287 -226 397
-247 508 -339 630 -520 150 -224 210 -417 223 -710 4 -115 4 -119 -10 -78 -28
86 -114 251 -190 368 -159 245 -348 442 -655 686 -145 115 -225 206 -285 327
-31 61 -99 241 -92 241 2 0 43 -40 92 -88z m2819 21 c-32 -182 -139 -319 -429
-555 -117 -95 -305 -276 -382 -368 -155 -184 -336 -483 -403 -668 -13 -34 -25
-62 -28 -62 -10 0 9 225 29 328 40 211 102 360 229 546 144 212 255 308 570
497 106 63 220 149 275 209 38 41 124 110 136 110 6 0 7 -16 3 -37z m200
-1072 c54 -13 59 -22 28 -57 -69 -78 -178 -148 -451 -289 -403 -207 -722 -513
-877 -838 -23 -51 -43 -87 -43 -82 -2 29 44 238 70 322 140 455 558 841 1004
927 44 8 89 17 100 19 37 8 130 7 169 -2z m-3021 -27 c287 -57 589 -234 766
-449 147 -178 238 -351 284 -535 16 -62 46 -224 47 -245 0 -5 -28 42 -63 105
-85 158 -143 235 -266 360 -167 168 -429 366 -628 476 -37 21 -79 45 -93 54
-14 9 -50 31 -81 47 -126 69 -221 177 -178 204 16 10 116 3 212 -17z m5134
-2300 c2 -7 -64 -17 -189 -28 -315 -29 -304 -29 -193 -1 55 14 118 29 140 34
55 12 237 9 242 -5z m164 -94 c10 0 19 -3 19 -7 0 -5 -25 -9 -55 -10 -30 0
-76 -8 -102 -17 -26 -8 -117 -29 -201 -46 -84 -16 -194 -44 -244 -60 -50 -17
-104 -30 -120 -30 -27 0 -370 -80 -643 -150 -102 -26 -128 -30 -112 -14 6 7
171 50 337 88 58 14 166 40 240 59 74 19 151 34 170 34 19 1 87 17 150 37 63
19 156 43 205 51 50 8 128 26 175 39 99 28 130 35 148 30 8 -2 22 -4 33 -4z
m-308 -37 c-7 -2 -19 -2 -25 0 -7 3 -2 5 12 5 14 0 19 -2 13 -5z m-113 -19
c-30 -8 -106 -23 -168 -34 -63 -11 -126 -23 -140 -26 -15 -4 -24 -4 -20 1 9 9
315 73 353 73 22 0 15 -4 -25 -14z m535 -34 c4 -6 -5 -10 -20 -10 -15 0 -24 4
-20 10 3 6 12 10 20 10 8 0 17 -4 20 -10z m-890 -40 c-17 -7 -99 -21 -370 -65
-16 -3 -7 2 20 10 54 16 181 40 285 54 84 11 89 11 65 1z m955 0 l25 -7 -25
-7 c-14 -3 -92 -17 -175 -31 -161 -26 -372 -68 -550 -110 -60 -14 -173 -39
-250 -55 -449 -98 -659 -157 -1010 -285 -97 -35 -346 -119 -510 -172 -200 -63
-521 -190 -656 -258 -28 -15 -48 -22 -45 -17 22 36 437 207 771 317 138 46
322 111 410 145 321 124 725 239 1065 305 47 9 98 20 114 26 15 5 105 27 200
48 427 99 570 121 636 101z m-1377 -77 c-7 -2 -19 -2 -25 0 -7 3 -2 5 12 5 14
0 19 -2 13 -5z m675 -20 c-10 -2 -26 -2 -35 0 -10 3 -2 5 17 5 19 0 27 -2 18
-5z m912 -23 c0 -5 -1 -10 -2 -10 -6 0 -605 -126 -1428 -300 -209 -44 -508
-116 -620 -150 -41 -12 -100 -29 -130 -36 -30 -8 -84 -23 -120 -34 -36 -11
-150 -44 -255 -74 -670 -192 -1105 -398 -1348 -642 -42 -42 -79 -75 -82 -72
-9 9 176 185 260 247 206 153 477 277 905 414 410 132 849 260 1048 308 70 16
163 39 207 49 44 10 172 38 285 60 113 23 275 56 360 75 215 47 636 134 750
156 109 20 170 23 170 9z m-1380 -44 c0 -11 -19 -15 -25 -6 -3 5 1 10 9 10 9
0 16 -2 16 -4z m-302 -71 c-5 -5 -104 -27 -210 -45 -127 -23 -635 -183 -853
-270 -291 -117 -488 -220 -746 -390 -84 -55 -146 -93 -138 -84 25 30 353 242
474 306 107 56 299 147 410 193 67 28 431 151 575 194 145 43 231 63 350 81
41 7 82 13 90 15 27 5 53 5 48 0z m-3012 -1086 c58 -75 56 -85 -3 -19 -50 56
-88 115 -57 89 9 -7 36 -39 60 -70z"/>
<path d="M6672 11483 c-40 -138 -42 -334 -5 -430 45 -114 192 -265 313 -321
41 -19 87 -38 103 -43 27 -8 28 -7 23 19 -4 15 -10 86 -16 157 -19 271 -82
386 -320 585 -36 30 -66 58 -68 62 -8 18 -19 6 -30 -29z"/>
<path d="M9104 11466 c-6 -6 -37 -33 -70 -61 -170 -143 -252 -259 -279 -397
-16 -78 -32 -348 -22 -348 14 0 174 93 211 122 90 72 161 174 193 278 21 68
23 244 4 343 -14 72 -20 81 -37 63z"/>
<path d="M7232 10983 c4 -199 6 -223 27 -273 32 -77 83 -151 138 -200 54 -48
210 -128 222 -114 16 17 41 181 42 266 1 97 -11 149 -52 230 -36 71 -138 177
-199 208 -25 12 -71 40 -102 61 -32 22 -63 39 -69 39 -7 0 -10 -64 -7 -217z"/>
<path d="M8445 11157 c-257 -153 -335 -270 -335 -504 0 -64 24 -220 36 -232 2
-2 23 4 46 13 172 70 259 142 314 260 42 91 54 163 53 305 0 139 -9 195 -29
198 -8 1 -47 -17 -85 -40z"/>
<path d="M6591 10771 c-29 -18 -5 -331 30 -407 19 -39 38 -56 151 -130 70 -47
156 -97 191 -110 34 -13 70 -29 79 -34 33 -18 36 -11 31 78 -9 160 -51 273
-137 369 -60 67 -295 243 -323 243 -5 0 -14 -4 -22 -9z"/>
<path d="M9170 10742 c-19 -18 -97 -80 -173 -138 -174 -132 -190 -147 -233
-211 -61 -92 -92 -221 -73 -299 l11 -43 37 23 c20 13 79 43 131 68 168 81 262
165 301 269 22 56 42 226 37 310 l-3 54 -35 -33z"/>
<path d="M11119 10071 c-123 -54 -226 -122 -281 -186 -33 -38 -67 -120 -77
-185 -14 -87 -21 -227 -14 -263 6 -29 7 -29 57 -23 94 13 153 36 256 101 97
62 152 165 157 290 9 255 9 305 -1 304 -6 0 -50 -17 -97 -38z"/>
<path d="M4600 9911 c0 -144 3 -179 21 -237 47 -152 161 -252 324 -287 65 -13
66 -13 91 72 20 66 14 159 -15 243 -37 109 -96 180 -207 249 -46 30 -111 71
-144 92 -33 20 -62 37 -65 37 -3 0 -5 -76 -5 -169z"/>
<path d="M10296 9899 c-34 -49 -96 -99 -241 -194 -129 -85 -234 -189 -270
-268 -28 -61 -44 -187 -45 -349 0 -111 4 -128 32 -128 30 0 156 47 208 77 84
49 191 136 242 197 93 111 123 209 133 436 6 141 -3 261 -20 266 -5 2 -23 -15
-39 -37z"/>
<path d="M5466 9893 c-34 -169 -40 -396 -12 -488 27 -89 50 -127 118 -201 92
-98 249 -200 367 -239 82 -27 86 -19 86 163 0 125 -4 158 -24 222 -40 132 -87
194 -250 328 -64 52 -153 129 -198 169 l-81 73 -6 -27z"/>
<path d="M11075 9346 c-27 -8 -93 -31 -145 -51 -107 -42 -187 -50 -218 -21
-28 25 -56 21 -48 -6 3 -13 9 -40 12 -61 4 -21 25 -66 48 -100 32 -48 53 -68
95 -89 76 -39 173 -39 268 -1 60 23 81 40 177 137 59 61 119 118 133 127 l24
16 -68 28 c-83 33 -202 42 -278 21z m-334 -146 c27 -15 25 -42 -3 -38 -15 2
-24 11 -26 26 -4 25 1 27 29 12z"/>
<path d="M4675 9310 c-7 -12 9 -68 37 -125 26 -52 93 -121 142 -147 45 -23
130 -28 165 -9 21 12 23 18 19 62 -8 83 -80 159 -195 207 -55 23 -157 30 -168
12z"/>
<path d="M11580 9179 c-263 -182 -326 -284 -337 -546 -7 -154 -17 -143 109
-119 147 29 232 76 284 158 51 81 57 116 58 360 1 126 1 228 1 228 0 -1 -52
-37 -115 -81z"/>
<path d="M4150 9068 c0 -303 25 -407 117 -487 65 -58 141 -84 226 -78 45 3 74
10 85 21 32 32 22 219 -19 351 -34 111 -101 182 -264 280 -44 26 -95 56 -112
67 l-33 20 0 -174z"/>
<path d="M11188 8367 c-20 -7 -53 -25 -72 -41 -48 -38 -49 -74 -3 -108 95 -71
215 -118 303 -118 86 0 245 111 289 203 10 21 16 39 14 41 -2 2 -74 11 -159
20 -178 19 -319 20 -372 3z"/>
<path d="M4400 8359 c-146 -28 -230 -52 -230 -64 0 -23 91 -94 170 -133 67
-33 82 -37 150 -36 86 0 147 23 217 80 51 42 54 66 12 105 -56 52 -191 73
-319 48z"/>
<path d="M4220 7404 c-75 -16 -180 -53 -180 -64 0 -4 38 -45 84 -92 115 -117
186 -153 307 -153 78 0 90 3 134 30 35 22 64 53 102 110 29 44 53 83 53 87 0
14 -119 68 -182 83 -78 18 -232 18 -318 -1z"/>
<path d="M11340 7310 c-41 -16 -88 -31 -103 -35 -31 -6 -32 -28 -1 -33 10 -1
30 -5 43 -8 14 -3 73 -55 132 -115 142 -145 181 -164 318 -156 76 5 98 9 109
24 37 51 -55 234 -149 295 -43 27 -158 58 -218 58 -37 -1 -81 -10 -131 -30z"/>
<path d="M10742 7065 c-68 -15 -159 -60 -176 -87 -7 -12 -5 -33 8 -75 15 -47
31 -70 85 -123 57 -57 77 -69 136 -87 131 -41 220 -38 385 11 95 29 250 112
250 135 0 5 -12 16 -27 24 -16 7 -96 53 -179 101 -84 48 -176 94 -205 102 -67
17 -194 17 -277 -1z"/>
<path d="M4030 7059 c0 -5 5 -7 10 -4 6 3 10 8 10 11 0 2 -4 4 -10 4 -5 0 -10
-5 -10 -11z"/>
<path d="M2194 6993 c3 -27 11 -91 17 -143 18 -168 54 -405 84 -555 77 -381
262 -940 406 -1227 42 -84 53 -98 74 -98 13 0 26 4 29 9 3 5 -19 64 -50 132
-231 515 -381 1035 -464 1609 -11 80 -28 168 -37 195 -18 57 -50 125 -60 125
-3 0 -3 -21 1 -47z"/>
<path d="M13607 7033 c-8 -14 -16 -57 -42 -228 -102 -661 -253 -1193 -481
-1692 -73 -158 -74 -163 -58 -188 9 -14 18 -25 20 -25 3 0 42 78 88 173 262
537 440 1184 496 1797 13 153 13 170 -4 170 -8 0 -17 -3 -19 -7z"/>
<path d="M4040 7010 c0 -5 5 -10 11 -10 5 0 7 5 4 10 -3 6 -8 10 -11 10 -2 0
-4 -4 -4 -10z"/>
<path d="M4134 7012 c-6 -4 -14 -30 -17 -59 l-6 -51 40 -7 c49 -8 114 2 130
21 36 44 -96 131 -147 96z"/>
<path d="M4893 6975 c-82 -12 -195 -57 -232 -92 -10 -10 -26 -34 -35 -53 -8
-19 -21 -43 -28 -52 -10 -15 -10 -21 0 -35 7 -10 18 -31 26 -47 7 -16 15 -24
17 -17 6 17 64 21 124 9 48 -9 58 -8 102 13 26 13 80 56 119 95 38 39 86 80
105 90 l34 19 -50 5 c-70 8 -98 25 -91 56 4 13 3 24 -1 23 -5 -1 -45 -7 -90
-14z"/>
<path d="M5250 6870 c-8 -5 -49 -25 -90 -45 -117 -56 -180 -136 -180 -227 0
-15 9 -50 20 -77 21 -55 18 -103 -8 -134 -8 -9 -12 -20 -8 -24 4 -4 22 9 39
28 39 43 100 89 132 98 13 3 46 39 79 85 102 141 117 188 87 259 -20 47 -38
56 -71 37z"/>
<path d="M10370 6824 c0 -3 10 -20 22 -37 15 -20 17 -29 7 -25 -69 26 -78 15
-26 -32 38 -35 47 -36 70 -10 23 27 22 29 -14 73 -26 32 -59 49 -59 31z"/>
<path d="M10256 6785 c4 -8 8 -15 10 -15 2 0 4 7 4 15 0 8 -4 15 -10 15 -5 0
-7 -7 -4 -15z"/>
<path d="M10068 6692 c-9 -9 -13 -23 -11 -29 3 -7 -2 -13 -11 -13 -24 0 -29
-20 -11 -40 25 -28 258 -110 272 -96 8 8 -7 26 -23 26 -8 0 -14 5 -14 10 0 6
9 10 20 10 33 0 23 13 -35 48 -55 33 -75 34 -75 5 0 -13 -3 -13 -15 -3 -17 14
-20 40 -5 40 6 0 10 7 10 15 0 9 -9 15 -23 15 -12 0 -32 7 -44 15 -18 13 -22
13 -35 -3z"/>
<path d="M4185 6681 c-64 -23 -124 -60 -169 -106 -42 -41 -47 -64 -13 -58 13
3 45 -8 77 -26 152 -85 181 -96 261 -96 56 0 83 5 105 19 26 16 164 151 164
161 0 7 -125 88 -164 106 -56 25 -192 25 -261 0z"/>
<path d="M10806 6656 c5 -13 73 -50 137 -75 17 -7 34 -24 42 -45 15 -36 44
-50 62 -31 6 7 11 37 12 67 0 53 -1 55 -24 51 -13 -3 -69 7 -125 21 -118 31
-111 30 -104 12z"/>
<path d="M5705 6615 c-22 -13 -61 -35 -87 -49 -51 -28 -64 -41 -49 -51 16 -9
61 6 61 20 0 8 12 16 28 19 40 9 134 65 127 76 -10 16 -38 11 -80 -15z"/>
<path d="M11455 6633 c-52 -12 -144 -72 -214 -140 -13 -13 -28 -23 -32 -23
-20 0 -7 -30 15 -36 14 -3 32 -15 42 -25 20 -22 92 -57 144 -70 80 -19 248 27
357 98 61 40 75 56 68 74 -12 28 -108 92 -167 110 -56 18 -162 24 -213 12z"/>
<path d="M9786 6585 c-6 -18 16 -30 39 -21 8 3 15 12 15 21 0 20 -46 20 -54 0z"/>
<path d="M11131 6533 c-8 -15 -13 -16 -30 -5 -13 7 -21 8 -21 2 0 -5 5 -10 10
-10 6 0 10 -10 10 -22 1 -23 1 -23 16 -3 13 17 16 18 24 5 8 -13 10 -13 10 2
0 9 3 23 6 32 8 22 -13 20 -25 -1z"/>
<path d="M6044 6505 c40 -36 56 -43 56 -25 0 6 -6 10 -13 10 -8 0 -24 11 -37
25 -13 14 -28 25 -34 25 -6 -1 7 -16 28 -35z"/>
<path d="M5475 6467 c-10 -7 -43 -29 -72 -49 -56 -41 -80 -47 -89 -23 -9 22
-34 18 -34 -4 0 -14 -16 -27 -55 -45 -30 -15 -59 -35 -65 -46 -11 -21 -1 -27
16 -10 5 5 37 15 69 21 33 6 64 15 70 20 11 11 42 12 47 1 2 -4 68 -16 148
-25 473 -58 835 -160 1175 -330 169 -84 364 -223 455 -324 45 -50 50 -53 35
-23 -47 92 -158 207 -275 282 -355 230 -830 383 -1370 441 -106 12 -115 14
-118 34 -4 25 23 36 95 37 40 1 63 16 26 16 -11 1 -4 7 15 15 17 8 32 17 32
20 0 10 -85 4 -105 -8z m33 -9 c-3 -7 -13 -15 -24 -17 -16 -3 -17 -1 -5 13 16
19 34 21 29 4z"/>
<path d="M11110 6441 c0 -17 5 -31 10 -31 6 0 10 11 10 24 0 14 -4 28 -10 31
-6 4 -10 -7 -10 -24z"/>
<path d="M6060 6387 c0 -8 11 -19 25 -25 32 -15 32 -2 0 21 -19 14 -25 15 -25
4z"/>
<path d="M9523 6393 c-18 -6 -16 -23 1 -23 17 0 30 16 19 23 -5 2 -14 2 -20 0z"/>
<path d="M9695 6391 c-3 -5 -1 -12 5 -16 5 -3 10 1 10 9 0 18 -6 21 -15 7z"/>
<path d="M6160 6383 c0 -5 9 -18 20 -28 11 -10 20 -14 20 -8 0 5 -9 18 -20 28
-11 10 -20 14 -20 8z"/>
<path d="M11146 6332 c-3 -5 1 -18 9 -28 8 -10 15 -30 15 -44 l1 -25 10 23 c6
17 5 28 -6 39 -8 8 -13 18 -10 23 3 5 1 11 -4 14 -5 4 -12 2 -15 -2z"/>
<path d="M4752 6313 c-7 -12 -12 -32 -12 -45 1 -19 3 -18 16 11 17 39 13 67
-4 34z"/>
<path d="M11235 6308 c14 -46 86 -156 123 -185 78 -63 119 -74 194 -51 75 22
61 49 -67 132 -76 49 -182 104 -233 121 -22 6 -23 5 -17 -17z"/>
<path d="M9338 6313 c7 -3 16 -2 19 1 4 3 -2 6 -13 5 -11 0 -14 -3 -6 -6z"/>
<path d="M5096 6264 c-9 -23 -8 -24 13 -24 16 0 31 18 31 36 0 12 -39 2 -44
-12z"/>
<path d="M6460 6269 c0 -9 12 -21 28 -28 22 -10 25 -10 12 1 -8 7 -20 20 -27
28 -11 13 -12 13 -13 -1z"/>
<path d="M4988 6220 c-30 -18 -20 -30 23 -30 23 0 60 -8 83 -19 23 -10 141
-35 266 -55 343 -55 801 -176 1075 -284 201 -79 424 -199 565 -305 79 -59 228
-212 296 -302 61 -81 80 -87 43 -13 -101 200 -298 376 -609 540 -156 83 -448
194 -665 253 -232 63 -775 181 -945 205 -36 5 -76 12 -90 15 -14 3 -33 0 -42
-5z"/>
<path d="M10320 6223 c-64 -13 -27 -18 114 -15 167 4 328 -9 420 -33 32 -9 61
-13 64 -10 9 8 -5 17 -35 20 -15 2 -57 11 -93 20 -65 16 -416 30 -470 18z"/>
<path d="M11195 6205 c8 -37 10 -39 30 -32 19 8 20 27 0 27 -7 0 -19 8 -25 18
-9 14 -10 11 -5 -13z"/>
<path d="M4512 6208 c-13 -13 -16 -88 -4 -88 17 0 32 26 32 56 0 37 -11 49
-28 32z"/>
<path d="M4032 6178 c-7 -7 -12 -17 -12 -24 0 -6 -9 -14 -20 -17 -28 -7 -25
-26 7 -38 16 -6 35 -17 44 -25 13 -12 18 -10 37 16 25 33 29 55 8 47 -10 -4
-18 4 -25 24 -11 31 -20 36 -39 17z"/>
<path d="M10255 6126 c-407 -85 -843 -229 -1139 -378 -245 -123 -500 -318
-614 -470 -45 -59 -106 -181 -100 -200 2 -6 26 22 54 63 59 89 240 273 344
351 138 103 338 215 520 293 199 86 551 200 770 251 41 9 129 30 195 45 215
52 353 49 610 -10 151 -35 147 -35 143 1 -2 17 -9 34 -17 36 -8 3 -11 0 -7 -7
14 -22 -24 -23 -87 -2 -211 70 -420 79 -672 27z"/>
<path d="M4766 6125 c-3 -8 -1 -15 5 -15 6 0 7 -4 4 -10 -3 -5 -16 -10 -28
-10 -12 0 -17 -4 -11 -9 11 -10 364 -2 364 9 0 15 -35 21 -171 27 -77 3 -139
10 -139 15 0 14 -18 9 -24 -7z"/>
<path d="M5190 6059 c0 -5 6 -9 13 -9 6 0 30 -3 52 -6 27 -5 37 -3 30 3 -13
14 -95 24 -95 12z"/>
<path d="M4541 5995 c-18 -8 -49 -29 -68 -45 -39 -35 -27 -39 51 -15 125 38
559 -8 1091 -116 510 -104 880 -233 1192 -417 231 -136 413 -298 591 -526 32
-41 37 -27 11 30 -95 204 -407 468 -754 639 -371 181 -966 336 -1640 425 -49
7 -115 16 -145 21 -30 5 -109 12 -175 15 -95 4 -127 2 -154 -11z"/>
<path d="M11702 5961 c4 -13 18 -16 19 -4 0 4 -5 9 -11 12 -7 2 -11 -2 -8 -8z"/>
<path d="M9818 5793 c7 -3 16 -2 19 1 4 3 -2 6 -13 5 -11 0 -14 -3 -6 -6z"/>
<path d="M3270 5049 c-29 -18 -32 -23 -18 -33 8 -6 114 -33 234 -60 340 -76
628 -142 874 -201 124 -29 324 -77 445 -105 1005 -239 1422 -358 1955 -557
195 -73 458 -212 597 -316 73 -53 212 -202 265 -283 66 -101 128 -218 128
-242 0 -11 5 -24 11 -27 7 -5 8 5 4 32 -30 178 -128 360 -269 498 -227 222
-579 393 -1251 608 -181 58 -686 195 -970 262 -82 20 -186 45 -230 55 -44 10
-161 37 -260 60 -209 47 -294 67 -500 115 -192 44 -830 185 -955 211 -16 3
-38 -3 -60 -17z"/>
<path d="M12530 5039 c-19 -5 -141 -30 -270 -55 -214 -41 -613 -125 -895 -188
-60 -14 -164 -37 -230 -51 -251 -54 -1109 -264 -1350 -330 -549 -152 -905
-288 -1180 -450 -291 -171 -493 -397 -560 -628 -19 -64 -15 -98 6 -52 23 51
139 227 186 283 105 124 225 222 385 315 84 50 134 75 314 157 122 56 464 174
694 239 19 5 69 19 110 31 534 153 1672 422 2481 585 119 24 236 49 260 54
190 43 190 43 178 58 -12 14 -75 44 -88 42 -3 -1 -22 -6 -41 -10z"/>
<path d="M8650 4945 c0 -8 4 -15 10 -15 5 0 7 7 4 15 -4 8 -8 15 -10 15 -2 0
-4 -7 -4 -15z"/>
<path d="M3069 4861 c-24 -22 -30 -31 -19 -34 8 -2 31 -9 50 -15 37 -11 187
-47 525 -127 719 -168 1990 -488 2267 -569 656 -194 947 -308 1228 -482 91
-56 153 -106 265 -213 85 -80 154 -135 161 -128 14 14 -97 161 -190 252 -225
221 -548 381 -1146 569 -485 152 -1037 294 -2355 606 -164 39 -403 96 -609
146 -126 30 -136 30 -177 -5z"/>
<path d="M12720 4865 c-30 -8 -82 -19 -115 -25 -33 -6 -127 -26 -210 -45 -82
-19 -213 -48 -290 -65 -300 -66 -1174 -273 -1400 -331 -88 -22 -221 -56 -295
-74 -177 -44 -694 -193 -965 -277 -167 -52 -369 -126 -470 -173 -256 -118
-383 -198 -522 -329 -122 -115 -218 -236 -188 -236 14 0 72 30 90 46 151 138
263 232 320 269 36 23 216 125 221 125 1 0 31 13 66 29 203 94 609 227 1018
335 96 26 238 64 315 86 219 62 993 254 1310 325 158 35 199 45 365 84 47 11
213 49 370 85 157 36 328 77 380 91 160 41 155 38 123 68 -27 24 -62 27 -123
12z"/>
<path d="M12975 4694 c-112 -32 -432 -114 -1175 -299 -256 -64 -523 -131 -595
-150 -71 -19 -254 -66 -405 -105 -151 -39 -372 -98 -490 -131 -118 -33 -312
-88 -430 -121 -326 -91 -576 -172 -764 -247 -242 -97 -398 -182 -519 -284
l-49 -40 61 -22 c91 -33 169 -84 207 -136 83 -114 69 -139 -275 -494 -403
-415 -588 -650 -652 -827 -12 -32 -25 -55 -29 -53 -4 3 -11 21 -15 42 -17 95
-132 272 -324 503 -103 125 -99 120 -316 355 -211 230 -250 275 -274 322 -26
53 -27 96 0 139 39 65 171 143 258 153 25 4 46 11 48 18 9 26 -143 141 -276
207 -219 111 -598 253 -935 352 -67 20 -157 46 -201 59 -77 22 -200 55 -505
135 -80 21 -188 49 -240 63 -247 67 -327 87 -785 202 -1424 358 -1448 364
-1470 349 -10 -8 -33 -14 -51 -14 -17 0 -34 -3 -37 -7 -11 -11 14 -33 38 -33
12 0 29 -9 36 -20 17 -25 253 -94 779 -229 195 -50 407 -104 470 -121 63 -17
212 -56 330 -86 118 -31 271 -71 340 -90 69 -19 166 -45 215 -59 165 -44 538
-147 730 -202 373 -106 973 -312 1110 -380 71 -36 119 -73 107 -85 -10 -10
-93 15 -322 98 -80 29 -224 77 -320 108 -96 30 -202 64 -235 75 -55 18 -412
119 -545 155 -30 8 -120 32 -200 54 -80 22 -201 54 -270 72 -69 18 -154 40
-190 50 -102 29 -617 160 -629 160 -20 0 -11 -17 51 -101 72 -97 299 -327 446
-453 310 -264 716 -523 1066 -678 154 -68 305 -128 441 -175 418 -144 634
-254 878 -451 405 -325 739 -802 813 -1162 7 -34 8 -32 21 35 80 387 490 921
972 1265 193 137 298 186 656 306 291 97 401 139 566 216 421 197 773 431
1194 793 265 228 479 424 472 431 -2 2 -82 -17 -178 -42 -95 -25 -340 -87
-544 -138 -783 -198 -1533 -421 -2017 -600 -54 -19 -99 -32 -102 -27 -37 60
408 232 1194 463 228 67 212 62 405 112 77 21 194 52 260 71 124 35 437 117
536 141 31 7 162 42 290 78 129 35 362 96 519 135 599 148 822 213 947 273 69
34 83 44 83 64 0 22 -2 23 -27 12 -16 -7 -34 -16 -40 -21 -9 -7 -13 -5 -13 6
0 8 -7 18 -16 21 -19 7 -17 8 -79 -10z"/>
<path d="M12290 4222 c-66 -89 -224 -287 -289 -362 -114 -131 -351 -368 -501
-499 -394 -345 -754 -591 -1193 -815 -325 -165 -504 -240 -912 -381 -221 -76
-412 -152 -421 -166 -9 -16 25 -10 165 27 769 203 1427 521 2049 990 92 70
169 129 172 133 3 3 27 24 55 46 173 139 506 463 657 640 47 55 136 167 197
248 109 143 112 149 95 168 -25 28 -35 24 -74 -29z"/>
<path d="M3491 4201 c-8 -15 3 -37 58 -119 329 -484 907 -1012 1496 -1365 246
-147 553 -305 750 -387 339 -141 642 -247 860 -303 139 -36 267 -57 253 -42
-12 12 -193 79 -378 140 -1017 331 -1795 784 -2431 1415 -86 85 -184 187 -219
225 -70 79 -259 316 -317 400 -40 58 -56 66 -72 36z"/>
<path d="M8316 3185 c-103 -26 -177 -69 -258 -149 -134 -132 -155 -176 -123
-266 25 -72 17 -160 -15 -160 -17 0 -23 37 -33 222 -3 45 -14 59 -21 27 -8
-41 -18 -111 -25 -179 -4 -47 -10 -65 -21 -65 -31 0 -38 94 -11 145 10 19 21
52 25 72 6 33 2 45 -33 97 -79 116 -216 212 -352 247 -125 32 -309 0 -379 -67
-58 -56 -39 -102 103 -255 414 -445 485 -529 632 -747 32 -48 62 -86 66 -85 3
2 38 50 77 108 108 160 189 252 561 639 113 117 211 221 218 230 37 49 -13
122 -116 169 -69 32 -203 40 -295 17z"/>
</g>
</svg>
